<svg xmlns="http://www.w3.org/2000/svg" viewBox="0 0 500 500"><defs><style>.cls-1{fill:#fff;}.cls-2{fill:none;stroke:#000;stroke-miterlimit:10;stroke-width:8px;}</style></defs><title>favicon</title><g id="BG"><rect class="cls-1" width="500" height="500" rx="31.47"/><rect class="cls-2" x="20.77" y="18.25" width="463.52" height="463.52" rx="12"/></g><g id="Trace"><circle cx="282.53" cy="227.6" r="56.71"/><circle class="cls-1" cx="282.53" cy="227.6" r="41.29"/><path d="M69.16,240.94S165.73,228.71,267,144.62c-20.49-20.26-94.44,32.4-112.59,34.32S34.67,242.54,69.16,240.94Z"/><path d="M82.68,196.22s82.8-23.95,129.24-59.61c-30.2-44.5-14.63-91.76-14.63-91.76S207,15.78,114.9,48.7s-85.21,53.17-85.21,53.17S81.66,156,82.68,196.22Z"/><path d="M213.05,466c4.32-18.83,5.42-38.07.22-54.6,0-71.92,133.19-74.58,133.19-74.58s63.93,29.3,93.23,24,34.63-29.3,26.64-37.29-69.26-16-79.91-32a494.18,494.18,0,0,0-33.32-44.3A73.25,73.25,0,0,1,211,212c-31.1,5.31-57.82,14.1-66.94,20.94C122.76,248.88,69.69,278.08,69.44,466Z"/></g></svg>