<svg xmlns="http://www.w3.org/2000/svg" viewBox="0 0 500 500"><defs><style>.cls-1{fill:#fff;}</style></defs><title>logo</title><g id="Trace"><path d="M301.83,282.84s12.25,12.26-28.6,217.25c69.37-40.95,78.46-58.72,78.46-58.72l-24.91-17.73L353,409.45s5.75-48.88,2.33-49.6l-3.43-.71s-16.7-14.23-23.32-42.44-21.49-32.11-21.49-32.11"/><path d="M170.24,282.84S158,295.1,198.84,500.09c-69.37-40.95-78.45-58.72-78.45-58.72l24.91-17.73-26.22-14.19s-5.75-48.88-2.32-49.6l3.42-.71s16.7-14.23,23.33-42.44S165,284.59,165,284.59"/><ellipse cx="233.55" cy="373.01" rx="14.01" ry="18.38"/><path d="M231.89,366.88s-38.28-26.26-42.38-17.51,1.36,42,4.1,42,34.18-10.51,36.92-12.26S231.89,366.88,231.89,366.88Z"/><path d="M240.89,366.88s39.33-22.76,43.43-14-2.4,38.52-5.14,38.52S245,380.88,242.26,379.13,240.89,366.88,240.89,366.88Z"/><path d="M451.52,190.93c-5.26-5.25-45.52-10.5-52.53-21A324.82,324.82,0,0,0,377.1,140.8a48.14,48.14,0,0,1-93.42-23.16c-20.45,3.49-38,9.27-44,13.77-14,10.5-49,29.76-49,154.06-1.1,45.17,30.63,56.9,34.14,56.9l31.51-1.75c7-1.75,40.06-56.36,28.89-91.92,0-47.27,87.53-49,87.53-49s42,19.26,61.28,15.76S456.77,196.18,451.52,190.93Z"/><circle cx="330.72" cy="127.9" r="37.27"/><circle class="cls-1" cx="330.72" cy="127.9" r="27.14"/><path d="M190.48,136.67s63.47-8,130-63.31c-13.46-13.31-62.07,21.3-74,22.56S167.81,137.72,190.48,136.67Z"/><path d="M199.36,107.28s54.42-15.74,84.95-39.18c-19.86-29.25-9.62-60.31-9.62-60.31s6.4-19.11-54.15,2.53-56,35-56,35S198.69,80.82,199.36,107.28Z"/></g></svg>